<?xml version="1.0" standalone="no"?>
<!DOCTYPE svg PUBLIC "-//W3C//DTD SVG 20010904//EN"
 "http://www.w3.org/TR/2001/REC-SVG-20010904/DTD/svg10.dtd">
<svg version="1.0" xmlns="http://www.w3.org/2000/svg"
 width="500.000000pt" height="500.000000pt" viewBox="0 0 500.000000 500.000000"
 preserveAspectRatio="xMidYMid meet">
<metadata>
Created by potrace 1.11, written by Peter Selinger 2001-2013
</metadata>
<g transform="translate(0.000000,500.000000) scale(0.100000,-0.100000)"
fill="#000000" stroke="none">
<path d="M2220 4745 c-63 -8 -126 -19 -140 -24 -14 -5 -61 -17 -104 -26 -281
-60 -619 -223 -864 -418 -237 -188 -487 -490 -596 -720 -19 -40 -52 -112 -75
-160 -170 -364 -219 -909 -121 -1358 25 -116 74 -277 105 -344 99 -214 132
-276 207 -392 192 -291 426 -516 725 -692 147 -87 234 -127 373 -175 58 -20
114 -41 125 -46 30 -14 167 -47 280 -67 127 -22 555 -25 685 -5 120 19 296 59
333 77 18 8 73 28 122 45 186 64 438 205 603 336 180 143 363 344 499 550 28
43 123 229 199 391 32 69 90 279 116 423 26 146 36 479 18 631 -25 220 -88
475 -150 604 -16 33 -48 103 -73 155 -87 187 -272 437 -448 606 -174 166 -325
272 -554 388 -200 101 -389 162 -655 212 -114 21 -471 26 -610 9z m495 -1324
c44 -12 126 -43 182 -71 243 -120 410 -321 483 -581 137 -492 -157 -1005 -655
-1141 -115 -31 -354 -31 -470 0 -508 137 -804 669 -649 1165 91 291 306 511
590 606 49 17 118 34 154 40 94 14 271 5 365 -18z"/>
<path d="M2045 3077 c-114 -29 -199 -98 -230 -187 -19 -55 -19 -103 1 -170 24
-81 90 -139 252 -224 73 -38 142 -80 152 -94 22 -27 26 -82 10 -113 -41 -75
-250 -72 -364 6 -28 19 -38 21 -51 11 -13 -9 -15 -28 -13 -101 l3 -90 70 -25
c61 -21 87 -24 205 -24 116 0 143 3 191 22 121 48 181 132 181 252 0 135 -76
224 -277 325 -124 63 -165 99 -165 144 0 69 62 105 181 105 72 0 94 -4 139
-26 29 -15 59 -24 66 -21 10 4 14 28 14 95 l0 89 -37 16 c-51 21 -259 27 -328
10z"/>
<path d="M2532 3058 c-17 -17 -17 -949 0 -966 8 -8 68 -12 204 -12 163 0 201
3 255 20 86 26 156 81 191 149 58 111 28 262 -65 331 -22 16 -47 30 -55 30 -9
0 7 23 36 53 99 106 97 252 -6 337 -68 56 -139 70 -356 70 -136 0 -196 -4
-204 -12z m353 -168 c50 -11 75 -41 75 -90 0 -76 -65 -120 -177 -120 l-53 0 0
110 0 110 58 0 c31 0 75 -5 97 -10z m53 -404 c49 -25 65 -57 60 -118 -9 -84
-66 -118 -200 -118 l-68 0 0 131 0 132 88 -5 c53 -3 100 -12 120 -22z"/>
</g>
</svg>
